<svg width="95" height="32" viewBox="0 0 95 32" fill="none" xmlns="http://www.w3.org/2000/svg">
<g clip-path="url(#clip0_228_792)">
<path d="M28.0808 31.8649H16.2003L5.83673 21.4942L11.7828 15.5547L28.0808 31.8649Z" fill="#434245"/>
<path d="M38.4604 0H30.0587V31.8649H38.4604V0Z" fill="#434245"/>
<path d="M38.4605 11.646V19.8854H19.4855L15.3342 15.7657L19.4855 11.646H38.4605Z" fill="#434245"/>
<path d="M0 0.0136719V10.4255L10.5333 0.0136719H0Z" fill="#E52037"/>
<path d="M16.0318 0.0126953L0.300934 15.7251L0 27.3248L5.83671 21.494L11.7827 15.5545L27.3336 0.0191303L16.0318 0.0126953Z" fill="#434245"/>
<path d="M49.2414 0.0849609H47.3638V1.74841H49.2414V0.0849609Z" fill="#434245"/>
<path d="M81.7024 0.273926H79.7489V1.93931H81.7024V0.273926Z" fill="#434245"/>
<path d="M51.8964 0.0849609H50.0123V1.74841H51.8964V0.0849609Z" fill="#434245"/>
<path d="M56.7589 11.8481H54.8813V13.5116H56.7589V11.8481Z" fill="#434245"/>
<path d="M59.4088 11.8481H57.5312V13.5116H59.4088V11.8481Z" fill="#434245"/>
<path d="M58.6121 3.08936H56.6715V8.71548H52.8269V3.08936H49.5327C48.7102 3.08936 48.0273 3.22835 47.4962 3.50699C46.9586 3.77919 46.5606 4.19682 46.3002 4.74766C46.0475 5.29206 45.9214 5.97546 45.9214 6.79206C45.9214 7.60866 46.0475 8.28369 46.3002 8.81715C46.5606 9.35512 46.9593 9.75345 47.4962 10.0128C48.0273 10.2721 48.7102 10.4047 49.5327 10.4047H58.6115V3.08936H58.6121ZM48.5456 8.58228C48.2993 8.49347 48.1283 8.31651 48.0209 8.04431C47.9187 7.75924 47.8749 7.34096 47.8749 6.79206C47.8749 6.20905 47.9251 5.7734 48.0338 5.49476C48.1469 5.20325 48.3302 5.01342 48.5713 4.92462C48.8176 4.83067 49.1327 4.77854 49.5327 4.77854H50.8727V8.71484H49.5327C49.1153 8.71484 48.7868 8.67108 48.545 8.58228H48.5456Z" fill="#434245"/>
<path d="M94.1841 0.0976562H92.2499V10.4052H94.1841V0.0976562Z" fill="#434245"/>
<path d="M87.9635 8.71542H84.776V6.55776C84.776 5.8306 84.5998 5.20383 84.2513 4.69161C83.9099 4.17809 83.4418 3.77977 82.8347 3.50757C82.2342 3.22893 81.532 3.08993 80.7417 3.08993C80.3173 3.08993 79.8936 3.12211 79.4582 3.19225C79.0274 3.26175 78.6037 3.34476 78.1876 3.43871L78.3773 4.98247C78.8319 4.91297 79.2563 4.86921 79.6479 4.83833C80.0331 4.79972 80.3437 4.77977 80.5642 4.77977C81.3494 4.77977 81.9242 4.93228 82.285 5.23022C82.6508 5.53331 82.8354 5.97668 82.8354 6.5584V8.71606H75.5692V0.0976562H73.6286V10.4052H89.9176V0.0976562H87.9641V8.71542H87.9635Z" fill="#434245"/>
<path d="M69.3487 8.71542H66.1747V7.41812C66.1747 6.38788 66.003 5.5584 65.6745 4.9252C65.3523 4.28685 64.8778 3.81902 64.245 3.52751C63.6264 3.23601 62.8677 3.08993 61.9758 3.08993H60.7939V4.77977H61.9758C62.5391 4.77977 62.9808 4.8557 63.303 5.01465C63.6316 5.16715 63.8663 5.43936 63.9987 5.81194C64.1447 6.19289 64.2206 6.73022 64.2206 7.41876V8.71606H60.2551V10.4059H71.3028V0.0976562H69.3493V8.71542H69.3487Z" fill="#434245"/>
<path d="M46.6481 17.4971H47.891V20.3233H51.1229V17.4971H52.3658V24.6026H51.1229V21.398H47.891V24.6026H46.6481V17.4971Z" fill="#434245"/>
<path d="M56.8805 17.3276C57.411 17.3276 57.8862 17.4274 58.3073 17.6262C58.7285 17.8251 59.0847 18.094 59.3767 18.4325C59.6686 18.771 59.8917 19.1655 60.048 19.6166C60.2036 20.0677 60.2814 20.5458 60.2814 21.0496C60.2814 21.5535 60.2036 22.0413 60.048 22.4924C59.8924 22.9435 59.6686 23.3386 59.3767 23.6764C59.0847 24.0149 58.7285 24.2819 58.3073 24.4776C57.8862 24.6732 57.4103 24.771 56.8805 24.771C56.3506 24.771 55.8741 24.6732 55.4536 24.4776C55.0324 24.2819 54.6762 24.0149 54.3849 23.6764C54.093 23.3379 53.8692 22.9435 53.7136 22.4924C53.558 22.0413 53.4802 21.5606 53.4802 21.0496C53.4802 20.5387 53.558 20.0677 53.7136 19.6166C53.8692 19.1655 54.093 18.7704 54.3849 18.4325C54.6768 18.094 55.0331 17.8257 55.4536 17.6262C55.8748 17.4274 56.35 17.3276 56.8805 17.3276ZM56.8805 18.3424C56.5024 18.3424 56.1757 18.419 55.9011 18.5715C55.6259 18.724 55.4022 18.928 55.2298 19.1835C55.0575 19.439 54.9295 19.7292 54.8472 20.0542C54.7643 20.3791 54.7231 20.7112 54.7231 21.0496C54.7231 21.3881 54.7643 21.7202 54.8472 22.0451C54.9302 22.3701 55.0575 22.6603 55.2298 22.9158C55.4022 23.1713 55.6259 23.3753 55.9011 23.5278C56.1764 23.6803 56.503 23.7569 56.8805 23.7569C57.2579 23.7569 57.5846 23.6809 57.8598 23.5278C58.135 23.3753 58.3588 23.1713 58.5311 22.9158C58.7034 22.6603 58.8307 22.3701 58.9137 22.0451C58.9966 21.7202 59.0378 21.3881 59.0378 21.0496C59.0378 20.7112 58.9966 20.3798 58.9137 20.0542C58.8307 19.7292 58.7034 19.439 58.5311 19.1835C58.3588 18.928 58.135 18.724 57.8598 18.5715C57.5846 18.419 57.2579 18.3424 56.8805 18.3424Z" fill="#434245"/>
<path d="M61.415 17.4971H62.658V23.528H66.2679V24.6026H61.415V17.4971Z" fill="#434245"/>
<path d="M67.1232 17.4971H68.3661V24.6026H67.1232V17.4971Z" fill="#434245"/>
<path d="M69.8882 17.4971H72.8319C73.3753 17.4971 73.846 17.5897 74.244 17.7757C74.642 17.9617 74.9668 18.2152 75.2188 18.537C75.4709 18.8587 75.658 19.2352 75.7808 19.6663C75.9037 20.0975 75.9647 20.5588 75.9647 21.0498C75.9647 21.5408 75.9037 22.0022 75.7808 22.4334C75.658 22.8645 75.4709 23.241 75.2188 23.5627C74.9668 23.8845 74.642 24.1386 74.244 24.324C73.846 24.5099 73.3753 24.6026 72.8319 24.6026H69.8882V17.4971ZM71.1311 23.5878H72.3542C72.8384 23.5878 73.2345 23.5235 73.5425 23.3935C73.8505 23.2641 74.0929 23.0852 74.2684 22.8561C74.444 22.6271 74.5636 22.3587 74.6266 22.0498C74.6896 21.7416 74.7211 21.4076 74.7211 21.0498C74.7211 20.6921 74.6896 20.3581 74.6266 20.0498C74.5636 19.7416 74.444 19.4726 74.2684 19.2435C74.0929 19.0144 73.8505 18.8356 73.5425 18.7062C73.2345 18.5769 72.8377 18.5119 72.3542 18.5119H71.1311V23.5872V23.5878Z" fill="#434245"/>
<path d="M78.967 17.4971H80.2897L83.0245 24.6026H81.6921L81.0259 22.7217H78.1915L77.5253 24.6026H76.2425L78.9676 17.4971H78.967ZM78.5297 21.7764H80.6974L79.6332 18.721H79.6036L78.5297 21.7764Z" fill="#434245"/>
<path d="M84.8146 21.8162L82.1493 17.4971H83.5909L85.4705 20.6818L87.3205 17.4971H88.7126L86.0576 21.8162V24.6026H84.8146V21.8162Z" fill="#434245"/>
<path d="M90.2243 22.2338C90.2243 22.506 90.2706 22.7383 90.3639 22.9308C90.4565 23.1232 90.5857 23.2808 90.7516 23.4037C90.9175 23.5266 91.1079 23.6161 91.3233 23.6727C91.5387 23.7293 91.7721 23.757 92.0242 23.757C92.2962 23.757 92.5277 23.7255 92.7206 23.6624C92.9128 23.5993 93.0684 23.5183 93.188 23.4185C93.3076 23.3188 93.3932 23.2042 93.4465 23.0749C93.4993 22.9456 93.5263 22.8143 93.5263 22.6817C93.5263 22.4095 93.4652 22.2087 93.3424 22.0794C93.2195 21.9501 93.0852 21.8587 92.9398 21.8059C92.6878 21.7132 92.3946 21.6251 92.0595 21.5421C91.7245 21.4591 91.3123 21.3516 90.8217 21.2184C90.5169 21.1386 90.2629 21.0344 90.061 20.905C89.8585 20.7757 89.6977 20.6315 89.5788 20.4719C89.4591 20.313 89.3749 20.1437 89.3254 19.9642C89.2759 19.7847 89.2508 19.6026 89.2508 19.4166C89.2508 19.0582 89.3254 18.748 89.4746 18.4861C89.6238 18.2242 89.8212 18.0067 90.0662 17.8342C90.3112 17.6618 90.5896 17.5344 90.9015 17.4513C91.2127 17.3683 91.5278 17.3271 91.846 17.3271C92.2171 17.3271 92.5669 17.3754 92.8955 17.4713C93.2234 17.5678 93.5121 17.712 93.761 17.9044C94.0098 18.0968 94.2066 18.3342 94.3525 18.6161C94.4985 18.8979 94.5712 19.2248 94.5712 19.5961H93.3282C93.2948 19.1386 93.1392 18.8149 92.8607 18.6257C92.5823 18.4365 92.2274 18.3419 91.7965 18.3419C91.6506 18.3419 91.5014 18.3567 91.349 18.387C91.1966 18.4166 91.0571 18.4668 90.931 18.5363C90.805 18.6058 90.7008 18.7004 90.6179 18.8201C90.5349 18.9398 90.4938 19.0891 90.4938 19.2679C90.4938 19.5202 90.5716 19.7178 90.7272 19.86C90.8828 20.0028 91.0866 20.1103 91.3387 20.1836C91.3651 20.1901 91.4692 20.2184 91.6519 20.2679C91.8338 20.3175 92.0377 20.3722 92.2634 20.432C92.4884 20.4919 92.709 20.5498 92.9244 20.6064C93.1398 20.6631 93.2941 20.7042 93.3867 20.7306C93.6189 20.804 93.8208 20.9031 93.9931 21.0292C94.1654 21.1553 94.3095 21.2995 94.4259 21.4623C94.5416 21.6251 94.6278 21.7988 94.6843 21.9848C94.7403 22.1708 94.7686 22.3567 94.7686 22.5421C94.7686 22.9404 94.6876 23.2802 94.5249 23.562C94.3622 23.8439 94.1487 24.0743 93.8831 24.2538C93.6182 24.4327 93.316 24.564 92.9784 24.647C92.6402 24.73 92.2955 24.7712 91.9444 24.7712C91.54 24.7712 91.1587 24.7216 90.8005 24.6219C90.4423 24.5221 90.1305 24.3696 89.8655 24.1643C89.6006 23.9591 89.3884 23.6952 89.229 23.3735C89.0701 23.0517 88.9872 22.6721 88.9801 22.2338H90.2231H90.2243Z" fill="#434245"/>
<path d="M48.6974 31.4107C48.5353 31.6095 48.3559 31.7543 48.1598 31.845C47.9637 31.9364 47.738 31.9814 47.4827 31.9814C47.284 31.9814 47.1007 31.9518 46.9329 31.8933C46.7651 31.8347 46.6198 31.7504 46.4989 31.641C46.3773 31.5316 46.2835 31.3971 46.2166 31.2369C46.1497 31.0767 46.1163 30.8959 46.1163 30.6932C46.1163 30.5394 46.1446 30.3997 46.2012 30.2736C46.2577 30.1481 46.333 30.0336 46.4262 29.93C46.5194 29.8264 46.6255 29.7343 46.7451 29.6533C46.8648 29.5722 46.9869 29.4995 47.1123 29.4345C47.0557 29.3617 47.0011 29.2897 46.9483 29.2189C46.8956 29.1481 46.8493 29.0741 46.8088 28.9969C46.7683 28.9197 46.7361 28.8386 46.7117 28.7536C46.6873 28.6687 46.6751 28.5793 46.6751 28.4859C46.6751 28.3276 46.7021 28.1861 46.7574 28.0606C46.812 27.9351 46.8879 27.8264 46.985 27.7356C47.0821 27.6449 47.1953 27.5747 47.3252 27.5258C47.4544 27.4769 47.5927 27.4531 47.738 27.4531C47.8756 27.4531 48.01 27.4744 48.1418 27.5168C48.2736 27.5593 48.3887 27.6243 48.4877 27.7112C48.5868 27.798 48.6671 27.9068 48.7276 28.0361C48.788 28.1661 48.8189 28.318 48.8189 28.4917C48.8189 28.6217 48.7977 28.7408 48.7552 28.8502C48.7128 28.9596 48.6562 29.0599 48.5855 29.1513C48.5147 29.2427 48.4318 29.3244 48.3366 29.3978C48.2415 29.4705 48.1412 29.5355 48.0357 29.5921L48.7102 30.4068C48.7347 30.3379 48.7591 30.2588 48.7829 30.17C48.8073 30.0812 48.8273 29.9654 48.8433 29.8238H49.451C49.4304 30.0143 49.3931 30.2009 49.3385 30.383C49.2838 30.5651 49.2079 30.7337 49.1108 30.8875L49.9429 31.8965H49.0928L48.698 31.41L48.6974 31.4107ZM47.4763 29.8913C47.4113 29.9319 47.3406 29.9724 47.2634 30.013C47.1863 30.0535 47.1149 30.1043 47.048 30.1648C46.9811 30.2253 46.9246 30.2987 46.8776 30.3836C46.8313 30.4686 46.8075 30.576 46.8075 30.706C46.8075 30.9409 46.8731 31.1217 47.0049 31.2472C47.1367 31.3727 47.3033 31.4358 47.5058 31.4358C47.6312 31.4358 47.7386 31.4184 47.828 31.3843C47.9167 31.3502 47.9926 31.3083 48.0556 31.2594C48.1186 31.2105 48.1707 31.1584 48.2138 31.1011C48.2562 31.0445 48.2935 30.9937 48.3263 30.9493L47.4763 29.8913ZM47.7553 27.9705C47.6254 27.9705 47.5161 28.0143 47.4274 28.1011C47.338 28.188 47.2936 28.3045 47.2936 28.4506C47.2936 28.5233 47.3065 28.5915 47.3329 28.6539C47.3592 28.717 47.3914 28.7774 47.43 28.836C47.4685 28.8946 47.511 28.9525 47.5573 29.0091C47.6036 29.0657 47.6473 29.1204 47.6878 29.1732C47.7528 29.1288 47.8151 29.0831 47.8762 29.0368C47.9367 28.9904 47.9913 28.9396 48.0402 28.8849C48.0891 28.8302 48.127 28.7684 48.1553 28.6996C48.1836 28.6307 48.1977 28.5535 48.1977 28.4686C48.1977 28.327 48.1572 28.208 48.0762 28.1127C47.9952 28.0175 47.8878 27.9699 47.7541 27.9699L47.7553 27.9705Z" fill="#434245"/>
<path d="M51.5948 27.5566H55.1057V28.213H53.7271V31.8964H52.9677V28.213H51.5948V27.5566Z" fill="#434245"/>
<path d="M57.456 27.4531C57.7801 27.4531 58.0701 27.5136 58.3273 27.6352C58.5845 27.7569 58.8018 27.921 58.98 28.1275C59.1581 28.3341 59.295 28.5754 59.3902 28.8508C59.4854 29.1262 59.533 29.4184 59.533 29.726C59.533 30.0336 59.4854 30.3321 59.3902 30.6076C59.295 30.883 59.1581 31.1243 58.98 31.3309C58.8018 31.5374 58.5839 31.7009 58.3273 31.8199C58.0701 31.9396 57.7794 31.9995 57.456 31.9995C57.1326 31.9995 56.8413 31.9396 56.5847 31.8199C56.3275 31.7002 56.1101 31.5374 55.932 31.3309C55.7539 31.1243 55.6169 30.883 55.5218 30.6076C55.4266 30.3321 55.379 30.0381 55.379 29.726C55.379 29.4139 55.4266 29.1262 55.5218 28.8508C55.6169 28.5754 55.7533 28.3341 55.932 28.1275C56.1101 27.921 56.3275 27.7569 56.5847 27.6352C56.8419 27.5136 57.1326 27.4531 57.456 27.4531ZM57.456 28.0728C57.2251 28.0728 57.0258 28.1191 56.858 28.2125C56.6902 28.3058 56.5532 28.4306 56.4477 28.5863C56.3423 28.7421 56.2645 28.9197 56.2137 29.1185C56.1629 29.3173 56.1378 29.5194 56.1378 29.7266C56.1378 29.9338 56.1629 30.1359 56.2137 30.3347C56.2645 30.5336 56.3423 30.7105 56.4477 30.8669C56.5532 31.0226 56.6895 31.1475 56.858 31.2408C57.0258 31.3341 57.2251 31.3804 57.456 31.3804C57.6868 31.3804 57.8862 31.3341 58.054 31.2408C58.2218 31.1475 58.3588 31.0233 58.4643 30.8669C58.5697 30.7112 58.6475 30.5336 58.6983 30.3347C58.7491 30.1365 58.7742 29.9338 58.7742 29.7266C58.7742 29.5194 58.7491 29.3173 58.6983 29.1185C58.6475 28.9203 58.5697 28.7427 58.4643 28.5863C58.3588 28.4306 58.2225 28.3058 58.054 28.2125C57.8862 28.1191 57.6868 28.0728 57.456 28.0728Z" fill="#434245"/>
<path d="M60.1772 27.5566H60.9367V30.085C60.9367 30.231 60.9437 30.379 60.9579 30.529C60.972 30.6789 61.0125 30.8134 61.0794 30.9331C61.1463 31.0528 61.2472 31.1512 61.3829 31.2278C61.5186 31.305 61.7096 31.343 61.9571 31.343C62.2047 31.343 62.3957 31.3044 62.5314 31.2278C62.667 31.1506 62.768 31.0528 62.8349 30.9331C62.9017 30.8134 62.9422 30.6789 62.9564 30.529C62.9705 30.379 62.9776 30.231 62.9776 30.085V27.5566H63.737V30.3346C63.737 30.6146 63.6946 30.8572 63.6097 31.0637C63.5248 31.2703 63.4039 31.4434 63.2483 31.5837C63.0927 31.7233 62.9049 31.8276 62.6863 31.8964C62.4677 31.9653 62.2246 32 61.9578 32C61.6909 32 61.4479 31.9653 61.2292 31.8964C61.0106 31.8276 60.8235 31.7233 60.6672 31.5837C60.5116 31.444 60.3907 31.2709 60.3059 31.0637C60.221 30.8572 60.1785 30.6139 60.1785 30.3346V27.5566H60.1772Z" fill="#434245"/>
<path d="M64.6109 27.5566H66.6821C67.1598 27.5566 67.518 27.6602 67.7572 27.8668C67.9958 28.0734 68.1154 28.361 68.1154 28.7297C68.1154 28.9363 68.0852 29.1075 68.0241 29.2433C67.963 29.379 67.8922 29.4884 67.8112 29.5714C67.7302 29.6545 67.6505 29.7143 67.5714 29.751C67.4923 29.7877 67.4344 29.8115 67.3984 29.8237V29.8359C67.4634 29.8443 67.5328 29.8642 67.608 29.8964C67.6826 29.9286 67.7527 29.9807 67.8177 30.0515C67.8826 30.1223 67.936 30.2149 67.9784 30.3282C68.0209 30.4415 68.0421 30.5837 68.0421 30.7536C68.0421 31.009 68.0614 31.2407 68.0999 31.4498C68.1385 31.6583 68.1983 31.8076 68.2793 31.8964H67.4653C67.4087 31.8031 67.3753 31.7001 67.365 31.5862C67.3547 31.473 67.3495 31.3636 67.3495 31.2581C67.3495 31.0599 67.3373 30.888 67.3129 30.7445C67.2884 30.601 67.2441 30.4814 67.1791 30.3861C67.1142 30.2909 67.0261 30.2207 66.9149 30.1763C66.8036 30.1319 66.6609 30.1094 66.4866 30.1094H65.369V31.8964H64.6096V27.5566H64.6109ZM65.3703 29.5322H66.6152C66.8583 29.5322 67.0422 29.4743 67.1682 29.3591C67.2936 29.2439 67.3566 29.0702 67.3566 28.8391C67.3566 28.7014 67.336 28.5888 67.2962 28.5019C67.2557 28.4151 67.1997 28.3469 67.129 28.2986C67.0582 28.2497 66.9772 28.2175 66.8859 28.2014C66.7946 28.1853 66.7007 28.177 66.6036 28.177H65.371V29.5322H65.3703Z" fill="#434245"/>
<path d="M68.887 27.5566H69.6464V31.8964H68.887V27.5566Z" fill="#434245"/>
<path d="M71.0732 30.4501C71.0732 30.6161 71.1015 30.7583 71.1581 30.8754C71.2147 30.9932 71.2938 31.0891 71.3947 31.1644C71.4957 31.2396 71.6121 31.2943 71.7439 31.3284C71.8751 31.3632 72.0178 31.3799 72.1722 31.3799C72.3381 31.3799 72.4802 31.3606 72.5972 31.322C72.7149 31.2834 72.81 31.2338 72.8827 31.1734C72.9554 31.1129 73.0081 31.0427 73.0409 30.9636C73.073 30.8844 73.0891 30.8046 73.0891 30.7236C73.0891 30.5575 73.0518 30.4346 72.9766 30.3561C72.9013 30.277 72.8197 30.2216 72.7303 30.1888C72.5766 30.1322 72.3972 30.0788 72.1927 30.0279C71.9882 29.9771 71.7362 29.9115 71.4365 29.8304C71.2501 29.7815 71.0951 29.7178 70.9716 29.6386C70.8482 29.5595 70.7498 29.4713 70.6771 29.3741C70.6045 29.277 70.5524 29.1734 70.5222 29.064C70.4919 28.9546 70.4765 28.8432 70.4765 28.7293C70.4765 28.5106 70.5222 28.3214 70.6128 28.1611C70.7041 28.0009 70.8244 27.8683 70.9742 27.7628C71.124 27.6573 71.2938 27.5794 71.4841 27.5286C71.6745 27.4777 71.8667 27.4526 72.0609 27.4526C72.2879 27.4526 72.5014 27.4822 72.7014 27.5408C72.902 27.5994 73.0782 27.6875 73.2299 27.8053C73.3817 27.923 73.5019 28.0678 73.5913 28.2396C73.68 28.4121 73.7251 28.6116 73.7251 28.8381H72.9656C72.9451 28.5588 72.8505 28.3613 72.6801 28.2454C72.5097 28.1302 72.2937 28.0723 72.0301 28.0723C71.9407 28.0723 71.85 28.0813 71.7568 28.0994C71.6635 28.1174 71.5786 28.1483 71.5015 28.1907C71.4243 28.2332 71.3607 28.2911 71.3099 28.3638C71.2591 28.4365 71.234 28.5279 71.234 28.6373C71.234 28.7911 71.2816 28.9121 71.3767 28.999C71.4719 29.0858 71.5966 29.1521 71.7503 29.1965C71.7664 29.2004 71.8301 29.2178 71.942 29.248C72.0532 29.2782 72.1779 29.3117 72.3155 29.3484C72.4532 29.3851 72.5875 29.4205 72.7194 29.4546C72.8505 29.4893 72.9451 29.5144 73.0017 29.5305C73.1431 29.5749 73.2666 29.636 73.372 29.7126C73.4775 29.7898 73.5656 29.878 73.6363 29.9771C73.7071 30.0762 73.7598 30.183 73.7945 30.2963C73.8286 30.4095 73.8459 30.5234 73.8459 30.6367C73.8459 30.8799 73.7964 31.0878 73.6974 31.2596C73.5984 31.432 73.4678 31.5723 73.3058 31.6817C73.1438 31.7911 72.9599 31.8709 72.7528 31.9217C72.5464 31.9726 72.3355 31.9977 72.1214 31.9977C71.8744 31.9977 71.6417 31.9674 71.423 31.9063C71.2044 31.8458 71.0141 31.7525 70.852 31.6264C70.69 31.5009 70.5607 31.34 70.4636 31.1431C70.3665 30.9468 70.3157 30.7145 70.3119 30.4468H71.0713L71.0732 30.4501Z" fill="#434245"/>
<path d="M74.4993 27.5566H75.568L76.7646 30.9543H76.7769L77.9433 27.5566H79.0004V31.8964H78.2777V28.547H78.2655L77.063 31.8964H76.4373L75.2349 28.547H75.2227V31.8964H74.4999V27.5566H74.4993Z" fill="#434245"/>
<path d="M79.9109 27.5566H80.6704V31.24H82.8753V31.8964H79.9109V27.5566Z" fill="#434245"/>
<path d="M83.355 31.0762H84.1993V31.8966H83.355V31.0762Z" fill="#434245"/>
<path d="M85.086 27.5566H85.8454V31.24H88.0503V31.8964H85.086V27.5566Z" fill="#434245"/>
<path d="M88.5294 31.0762H89.3736V31.8966H88.5294V31.0762Z" fill="#434245"/>
<path d="M93.1881 28.9367C93.1559 28.8112 93.1109 28.6954 93.0543 28.5905C92.9977 28.485 92.9244 28.3943 92.8357 28.317C92.7463 28.2398 92.6421 28.18 92.5225 28.1375C92.4029 28.095 92.2647 28.0738 92.1065 28.0738C91.8757 28.0738 91.6763 28.1201 91.5085 28.2134C91.3407 28.3067 91.2037 28.4316 91.0982 28.5873C90.9928 28.743 90.915 28.9206 90.8642 29.1195C90.8134 29.3183 90.7883 29.5204 90.7883 29.7276C90.7883 29.9348 90.8134 30.1369 90.8642 30.3357C90.915 30.5345 90.9928 30.7115 91.0982 30.8679C91.2037 31.0236 91.34 31.1484 91.5085 31.2417C91.6763 31.3351 91.8757 31.3814 92.1065 31.3814C92.2763 31.3814 92.4261 31.3518 92.556 31.2932C92.6852 31.2347 92.7971 31.1536 92.8903 31.05C92.9836 30.9464 93.0562 30.826 93.109 30.6883C93.1617 30.5506 93.1958 30.4026 93.2125 30.2443H93.9533C93.9372 30.5037 93.8812 30.7405 93.7861 30.9554C93.6909 31.1703 93.5623 31.3556 93.4003 31.5114C93.2382 31.6671 93.0479 31.7881 92.8293 31.873C92.6106 31.958 92.3695 32.0004 92.1065 32.0004C91.7824 32.0004 91.4918 31.9406 91.2352 31.8209C90.978 31.7012 90.7607 31.5384 90.5825 31.3318C90.4044 31.1253 90.2675 30.884 90.1723 30.6085C90.0771 30.3331 90.0295 30.039 90.0295 29.7269C90.0295 29.4148 90.0771 29.1272 90.1723 28.8518C90.2675 28.5764 90.4038 28.3351 90.5825 28.1285C90.7607 27.9219 90.978 27.7578 91.2352 27.6362C91.4924 27.5146 91.7831 27.4541 92.1065 27.4541C92.3496 27.4541 92.5778 27.4876 92.7926 27.5545C93.0074 27.6214 93.1964 27.7186 93.3604 27.846C93.5244 27.9734 93.6568 28.1285 93.7584 28.3112C93.8594 28.4934 93.9224 28.7025 93.9468 28.9374H93.1874L93.1881 28.9367Z" fill="#434245"/>
</g>
<defs>
<clipPath id="clip0_228_792">
<rect width="94.7692" height="32" fill="white"/>
</clipPath>
</defs>
</svg>
